<svg width="33" height="32" viewBox="0 0 33 32" fill="none" xmlns="http://www.w3.org/2000/svg">
<path fill-rule="evenodd" clip-rule="evenodd" d="M30.9801 6.85002C30.0501 7.27002 29.0301 7.52002 28.0301 7.69002C28.5001 7.61002 29.2101 6.75002 29.4801 6.40002C29.9101 5.87002 30.2601 5.27002 30.4601 4.61002C30.4901 4.56002 30.5001 4.49002 30.4601 4.46002C30.4001 4.43002 30.3501 4.45002 30.3001 4.47002C29.1801 5.07002 28.0301 5.50002 26.8001 5.81002C26.7001 5.84002 26.6201 5.81002 26.5601 5.75002C26.4601 5.64002 26.3601 5.53002 26.2501 5.44002C25.0101 4.38002 23.4201 3.90002 21.8501 4.01002C21.8501 4.01002 21.8601 4.01002 21.8701 4.01002H21.7501C21.7501 4.01002 21.7801 4.01002 21.7901 4.02002C20.9201 4.09002 20.0601 4.34002 19.2701 4.79002C16.9701 6.09002 15.8601 8.64002 16.2401 11.2C16.2601 11.34 16.2401 11.36 16.1201 11.34C11.3101 10.62 7.32012 8.90002 4.09012 5.21002C3.95012 5.05002 3.87012 5.05002 3.76012 5.22002C2.34012 7.34002 3.03012 10.75 4.80012 12.43C5.04012 12.65 5.28012 12.88 5.54012 13.08C5.44012 13.1 4.27012 12.97 3.22012 12.43C3.08012 12.34 3.01012 12.39 3.00012 12.55C2.99012 12.78 3.00012 12.99 3.04012 13.24C3.31012 15.39 4.80012 17.38 6.84012 18.16C7.08012 18.26 7.35012 18.35 7.61012 18.4C7.15012 18.5 6.67012 18.57 5.33012 18.47C5.16012 18.44 5.10012 18.52 5.16012 18.68C6.16012 21.41 8.33012 22.22 9.95012 22.69C10.1701 22.73 10.3801 22.73 10.6001 22.78C10.5901 22.8 10.5701 22.8 10.5601 22.82C10.0201 23.64 8.16012 24.25 7.29012 24.55C5.71012 25.1 3.99012 25.35 2.33012 25.19C2.06012 25.15 2.01012 25.15 1.93012 25.19C1.86012 25.24 1.93012 25.3 2.01012 25.37C2.35012 25.59 2.69012 25.79 3.04012 25.98C4.10012 26.54 5.20012 26.99 6.36012 27.31C13.0701 29.16 20.4501 27.28 24.7601 21.65C27.2901 18.35 28.2701 14.27 28.2701 10.17C28.2701 9.98002 28.4901 9.88002 28.6301 9.78002C29.5401 9.09002 30.2701 8.27002 30.9501 7.35002C31.1001 7.14002 31.0901 6.96002 31.0901 6.88002V6.85002C31.0901 6.77002 31.0901 6.80002 30.9801 6.85002Z" fill="#F5F5F5"/>
</svg>
