<svg width="33" height="32" viewBox="0 0 33 32" fill="none" xmlns="http://www.w3.org/2000/svg">
<path fill-rule="evenodd" clip-rule="evenodd" d="M16.21 4.03009C10.26 4.44009 5.51 9.38009 5.32 15.3401C5.24 17.7501 5.89 20.0801 7.19 22.0801L4.25 28.0001C4.34 28.0001 11.52 26.0601 11.52 26.0601C13.21 26.9701 15.11 27.4401 17.04 27.4401C23.5 27.4401 28.76 22.1801 28.76 15.7201C28.76 9.26009 23.05 3.56009 16.21 4.03009ZM17.03 25.4001C15.32 25.4001 13.63 24.9401 12.16 24.0801C12 23.9901 11.79 23.8401 11.79 23.8401C11.79 23.8401 11.46 23.9501 11.37 23.9701L8.16 24.8501L9.53 21.8301C7.98 19.9201 7.22 17.5601 7.37 15.1001C7.66 10.3001 11.54 6.39009 16.34 6.06009C21.98 5.67009 26.7 10.1501 26.7 15.7101C26.7 21.2701 22.36 25.3901 17.02 25.3901L17.03 25.4001Z" fill="#F5F5F5"/>
<path fill-rule="evenodd" clip-rule="evenodd" d="M21.5401 17.4799C21.0501 17.1899 20.4101 16.8599 19.8301 17.0999C19.3901 17.2799 19.1001 17.9799 18.8201 18.3299C18.6701 18.5099 18.5001 18.5399 18.2701 18.4499C16.6001 17.7899 15.3301 16.6699 14.4101 15.1399C14.2501 14.8999 14.2801 14.7099 14.4701 14.4899C14.7501 14.1599 15.1001 13.7899 15.1701 13.3499C15.2501 12.9099 15.0401 12.3899 14.8601 11.9999C14.6301 11.4999 14.3701 10.7799 13.8701 10.4999C13.4101 10.2399 12.8001 10.3899 12.3901 10.7199C11.6801 11.2999 11.3401 12.1999 11.3501 13.0999C11.3501 13.3599 11.3801 13.6099 11.4401 13.8599C11.9401 15.9099 13.3501 17.6399 15.0001 18.8899C16.4201 19.9699 18.7701 21.4299 20.6401 21.0799C21.5501 20.9099 22.4401 20.3499 22.8001 19.4699C22.9101 19.2099 22.9601 18.9199 22.9001 18.6499C22.7801 18.0899 22.0101 17.7499 21.5501 17.4799H21.5401Z" fill="#F5F5F5"/>
</svg>
